<mxfile host="app.diagrams.net" agent="Mozilla/5.0 (Macintosh; Intel Mac OS X 10_15_7) AppleWebKit/537.36 (KHTML, like Gecko) Chrome/130.0.0.0 Safari/537.36" version="24.8.6" pages="2">
  <diagram id="2nBGQawmMXjJ6F1fiuIw" name="Diagrama_Flujo_AdminPets_General">
    <mxGraphModel dx="794" dy="432" grid="1" gridSize="10" guides="1" tooltips="1" connect="1" arrows="1" fold="1" page="1" pageScale="1" pageWidth="827" pageHeight="1169" math="0" shadow="0">
      <root>
        <mxCell id="0" />
        <mxCell id="1" parent="0" />
        <mxCell id="T67XzUMtasSWOSdstBTj-4" value="" style="edgeStyle=orthogonalEdgeStyle;rounded=0;orthogonalLoop=1;jettySize=auto;html=1;" edge="1" parent="1" source="T67XzUMtasSWOSdstBTj-1" target="T67XzUMtasSWOSdstBTj-3">
          <mxGeometry relative="1" as="geometry" />
        </mxCell>
        <mxCell id="T67XzUMtasSWOSdstBTj-1" value="Inicio" style="ellipse;whiteSpace=wrap;html=1;" vertex="1" parent="1">
          <mxGeometry x="370" y="40" width="60" height="30" as="geometry" />
        </mxCell>
        <mxCell id="T67XzUMtasSWOSdstBTj-8" value="" style="edgeStyle=orthogonalEdgeStyle;rounded=0;orthogonalLoop=1;jettySize=auto;html=1;" edge="1" parent="1" source="T67XzUMtasSWOSdstBTj-3" target="T67XzUMtasSWOSdstBTj-7">
          <mxGeometry relative="1" as="geometry" />
        </mxCell>
        <mxCell id="T67XzUMtasSWOSdstBTj-3" value="Email, Usuario" style="whiteSpace=wrap;html=1;" vertex="1" parent="1">
          <mxGeometry x="340" y="135" width="120" height="25" as="geometry" />
        </mxCell>
        <mxCell id="T67XzUMtasSWOSdstBTj-10" value="" style="edgeStyle=orthogonalEdgeStyle;rounded=0;orthogonalLoop=1;jettySize=auto;html=1;" edge="1" parent="1" source="T67XzUMtasSWOSdstBTj-7" target="T67XzUMtasSWOSdstBTj-9">
          <mxGeometry relative="1" as="geometry" />
        </mxCell>
        <mxCell id="T67XzUMtasSWOSdstBTj-7" value="Login" style="shape=process;whiteSpace=wrap;html=1;backgroundOutline=1;" vertex="1" parent="1">
          <mxGeometry x="340" y="210" width="120" height="60" as="geometry" />
        </mxCell>
        <mxCell id="T67XzUMtasSWOSdstBTj-12" value="" style="edgeStyle=orthogonalEdgeStyle;rounded=0;orthogonalLoop=1;jettySize=auto;html=1;" edge="1" parent="1" source="T67XzUMtasSWOSdstBTj-9" target="T67XzUMtasSWOSdstBTj-11">
          <mxGeometry relative="1" as="geometry" />
        </mxCell>
        <mxCell id="T67XzUMtasSWOSdstBTj-16" value="" style="edgeStyle=orthogonalEdgeStyle;rounded=0;orthogonalLoop=1;jettySize=auto;html=1;" edge="1" parent="1" source="T67XzUMtasSWOSdstBTj-9" target="T67XzUMtasSWOSdstBTj-15">
          <mxGeometry relative="1" as="geometry" />
        </mxCell>
        <mxCell id="T67XzUMtasSWOSdstBTj-9" value="Login = true" style="rhombus;whiteSpace=wrap;html=1;" vertex="1" parent="1">
          <mxGeometry x="360" y="340" width="80" height="80" as="geometry" />
        </mxCell>
        <mxCell id="T67XzUMtasSWOSdstBTj-26" value="" style="edgeStyle=orthogonalEdgeStyle;rounded=0;orthogonalLoop=1;jettySize=auto;html=1;" edge="1" parent="1" source="T67XzUMtasSWOSdstBTj-11" target="T67XzUMtasSWOSdstBTj-25">
          <mxGeometry relative="1" as="geometry" />
        </mxCell>
        <mxCell id="T67XzUMtasSWOSdstBTj-11" value="Pantalla Usuario" style="shape=document;whiteSpace=wrap;html=1;boundedLbl=1;" vertex="1" parent="1">
          <mxGeometry x="500" y="340" width="120" height="80" as="geometry" />
        </mxCell>
        <mxCell id="T67XzUMtasSWOSdstBTj-13" value="Si" style="text;html=1;align=center;verticalAlign=middle;resizable=0;points=[];autosize=1;strokeColor=none;fillColor=none;" vertex="1" parent="1">
          <mxGeometry x="445" y="348" width="30" height="30" as="geometry" />
        </mxCell>
        <mxCell id="T67XzUMtasSWOSdstBTj-18" value="" style="edgeStyle=orthogonalEdgeStyle;rounded=0;orthogonalLoop=1;jettySize=auto;html=1;" edge="1" parent="1" source="T67XzUMtasSWOSdstBTj-15" target="T67XzUMtasSWOSdstBTj-17">
          <mxGeometry relative="1" as="geometry" />
        </mxCell>
        <mxCell id="T67XzUMtasSWOSdstBTj-15" value="Registro" style="shape=process;whiteSpace=wrap;html=1;backgroundOutline=1;" vertex="1" parent="1">
          <mxGeometry x="180" y="350" width="120" height="60" as="geometry" />
        </mxCell>
        <mxCell id="T67XzUMtasSWOSdstBTj-19" style="edgeStyle=orthogonalEdgeStyle;rounded=0;orthogonalLoop=1;jettySize=auto;html=1;entryX=0;entryY=0.5;entryDx=0;entryDy=0;" edge="1" parent="1" source="T67XzUMtasSWOSdstBTj-17" target="T67XzUMtasSWOSdstBTj-7">
          <mxGeometry relative="1" as="geometry" />
        </mxCell>
        <mxCell id="T67XzUMtasSWOSdstBTj-21" style="edgeStyle=orthogonalEdgeStyle;rounded=0;orthogonalLoop=1;jettySize=auto;html=1;" edge="1" parent="1" source="T67XzUMtasSWOSdstBTj-17">
          <mxGeometry relative="1" as="geometry">
            <mxPoint x="140" y="240" as="targetPoint" />
          </mxGeometry>
        </mxCell>
        <mxCell id="T67XzUMtasSWOSdstBTj-17" value="Registro = true" style="rhombus;whiteSpace=wrap;html=1;" vertex="1" parent="1">
          <mxGeometry x="200" y="200" width="80" height="80" as="geometry" />
        </mxCell>
        <mxCell id="T67XzUMtasSWOSdstBTj-20" value="Si" style="text;html=1;align=center;verticalAlign=middle;resizable=0;points=[];autosize=1;strokeColor=none;fillColor=none;" vertex="1" parent="1">
          <mxGeometry x="295" y="208" width="30" height="30" as="geometry" />
        </mxCell>
        <mxCell id="T67XzUMtasSWOSdstBTj-22" value="1" style="ellipse;whiteSpace=wrap;html=1;aspect=fixed;" vertex="1" parent="1">
          <mxGeometry x="110" y="225" width="30" height="30" as="geometry" />
        </mxCell>
        <mxCell id="T67XzUMtasSWOSdstBTj-24" style="edgeStyle=orthogonalEdgeStyle;rounded=0;orthogonalLoop=1;jettySize=auto;html=1;entryX=0;entryY=0.5;entryDx=0;entryDy=0;" edge="1" parent="1" source="T67XzUMtasSWOSdstBTj-23" target="T67XzUMtasSWOSdstBTj-15">
          <mxGeometry relative="1" as="geometry" />
        </mxCell>
        <mxCell id="T67XzUMtasSWOSdstBTj-23" value="1" style="ellipse;whiteSpace=wrap;html=1;aspect=fixed;" vertex="1" parent="1">
          <mxGeometry x="70" y="365" width="30" height="30" as="geometry" />
        </mxCell>
        <mxCell id="T67XzUMtasSWOSdstBTj-28" value="" style="edgeStyle=orthogonalEdgeStyle;rounded=0;orthogonalLoop=1;jettySize=auto;html=1;" edge="1" parent="1" source="T67XzUMtasSWOSdstBTj-25" target="T67XzUMtasSWOSdstBTj-27">
          <mxGeometry relative="1" as="geometry" />
        </mxCell>
        <mxCell id="T67XzUMtasSWOSdstBTj-25" value="User" style="whiteSpace=wrap;html=1;" vertex="1" parent="1">
          <mxGeometry x="500" y="460" width="120" height="30" as="geometry" />
        </mxCell>
        <mxCell id="T67XzUMtasSWOSdstBTj-30" value="" style="edgeStyle=orthogonalEdgeStyle;rounded=0;orthogonalLoop=1;jettySize=auto;html=1;" edge="1" parent="1" source="T67XzUMtasSWOSdstBTj-27" target="T67XzUMtasSWOSdstBTj-29">
          <mxGeometry relative="1" as="geometry" />
        </mxCell>
        <mxCell id="-AzcmyxC4q3Ii_VXM3K7-7" style="edgeStyle=orthogonalEdgeStyle;rounded=0;orthogonalLoop=1;jettySize=auto;html=1;entryX=1;entryY=0.5;entryDx=0;entryDy=0;" edge="1" parent="1" source="T67XzUMtasSWOSdstBTj-27" target="-AzcmyxC4q3Ii_VXM3K7-5">
          <mxGeometry relative="1" as="geometry" />
        </mxCell>
        <mxCell id="T67XzUMtasSWOSdstBTj-27" value="user == 1" style="rhombus;whiteSpace=wrap;html=1;" vertex="1" parent="1">
          <mxGeometry x="520" y="545" width="80" height="80" as="geometry" />
        </mxCell>
        <mxCell id="T67XzUMtasSWOSdstBTj-32" value="" style="edgeStyle=orthogonalEdgeStyle;rounded=0;orthogonalLoop=1;jettySize=auto;html=1;" edge="1" parent="1" source="T67XzUMtasSWOSdstBTj-29" target="T67XzUMtasSWOSdstBTj-31">
          <mxGeometry relative="1" as="geometry" />
        </mxCell>
        <mxCell id="-2F_RLexDrQDR6lkoxeQ-2" style="edgeStyle=orthogonalEdgeStyle;rounded=0;orthogonalLoop=1;jettySize=auto;html=1;entryX=1;entryY=0.5;entryDx=0;entryDy=0;" edge="1" parent="1" source="T67XzUMtasSWOSdstBTj-29" target="-2F_RLexDrQDR6lkoxeQ-1">
          <mxGeometry relative="1" as="geometry" />
        </mxCell>
        <mxCell id="T67XzUMtasSWOSdstBTj-29" value="user == 2" style="rhombus;whiteSpace=wrap;html=1;" vertex="1" parent="1">
          <mxGeometry x="520" y="660" width="80" height="80" as="geometry" />
        </mxCell>
        <mxCell id="-AzcmyxC4q3Ii_VXM3K7-2" value="" style="edgeStyle=orthogonalEdgeStyle;rounded=0;orthogonalLoop=1;jettySize=auto;html=1;" edge="1" parent="1" source="T67XzUMtasSWOSdstBTj-31" target="-AzcmyxC4q3Ii_VXM3K7-1">
          <mxGeometry relative="1" as="geometry" />
        </mxCell>
        <mxCell id="T67XzUMtasSWOSdstBTj-31" value="User == 3" style="rhombus;whiteSpace=wrap;html=1;" vertex="1" parent="1">
          <mxGeometry x="520" y="770" width="80" height="80" as="geometry" />
        </mxCell>
        <mxCell id="-AzcmyxC4q3Ii_VXM3K7-4" value="" style="edgeStyle=orthogonalEdgeStyle;rounded=0;orthogonalLoop=1;jettySize=auto;html=1;" edge="1" parent="1" source="-AzcmyxC4q3Ii_VXM3K7-1" target="-AzcmyxC4q3Ii_VXM3K7-3">
          <mxGeometry relative="1" as="geometry" />
        </mxCell>
        <mxCell id="-AzcmyxC4q3Ii_VXM3K7-1" value="User == 4" style="rhombus;whiteSpace=wrap;html=1;" vertex="1" parent="1">
          <mxGeometry x="520" y="880" width="80" height="80" as="geometry" />
        </mxCell>
        <mxCell id="-AzcmyxC4q3Ii_VXM3K7-3" value="User == 5" style="rhombus;whiteSpace=wrap;html=1;" vertex="1" parent="1">
          <mxGeometry x="520" y="990" width="80" height="80" as="geometry" />
        </mxCell>
        <mxCell id="-2F_RLexDrQDR6lkoxeQ-19" style="edgeStyle=orthogonalEdgeStyle;rounded=0;orthogonalLoop=1;jettySize=auto;html=1;" edge="1" parent="1" source="-AzcmyxC4q3Ii_VXM3K7-5" target="-2F_RLexDrQDR6lkoxeQ-20">
          <mxGeometry relative="1" as="geometry">
            <mxPoint x="260" y="585" as="targetPoint" />
          </mxGeometry>
        </mxCell>
        <mxCell id="-AzcmyxC4q3Ii_VXM3K7-5" value="Usuario Administrador" style="shape=document;whiteSpace=wrap;html=1;boundedLbl=1;" vertex="1" parent="1">
          <mxGeometry x="340" y="545" width="120" height="80" as="geometry" />
        </mxCell>
        <mxCell id="-2F_RLexDrQDR6lkoxeQ-21" style="edgeStyle=orthogonalEdgeStyle;rounded=0;orthogonalLoop=1;jettySize=auto;html=1;" edge="1" parent="1" source="-2F_RLexDrQDR6lkoxeQ-1" target="-2F_RLexDrQDR6lkoxeQ-22">
          <mxGeometry relative="1" as="geometry">
            <mxPoint x="280" y="700" as="targetPoint" />
          </mxGeometry>
        </mxCell>
        <mxCell id="-2F_RLexDrQDR6lkoxeQ-1" value="Usuario Veterinario" style="shape=document;whiteSpace=wrap;html=1;boundedLbl=1;" vertex="1" parent="1">
          <mxGeometry x="340" y="660" width="120" height="80" as="geometry" />
        </mxCell>
        <mxCell id="-2F_RLexDrQDR6lkoxeQ-23" style="edgeStyle=orthogonalEdgeStyle;rounded=0;orthogonalLoop=1;jettySize=auto;html=1;" edge="1" parent="1" source="-2F_RLexDrQDR6lkoxeQ-3" target="-2F_RLexDrQDR6lkoxeQ-24">
          <mxGeometry relative="1" as="geometry">
            <mxPoint x="280" y="820" as="targetPoint" />
          </mxGeometry>
        </mxCell>
        <mxCell id="-2F_RLexDrQDR6lkoxeQ-3" value="Usuario Voluntario" style="shape=document;whiteSpace=wrap;html=1;boundedLbl=1;" vertex="1" parent="1">
          <mxGeometry x="340" y="780" width="120" height="80" as="geometry" />
        </mxCell>
        <mxCell id="-2F_RLexDrQDR6lkoxeQ-5" style="edgeStyle=orthogonalEdgeStyle;rounded=0;orthogonalLoop=1;jettySize=auto;html=1;entryX=1.028;entryY=0.383;entryDx=0;entryDy=0;entryPerimeter=0;" edge="1" parent="1" source="T67XzUMtasSWOSdstBTj-31" target="-2F_RLexDrQDR6lkoxeQ-3">
          <mxGeometry relative="1" as="geometry" />
        </mxCell>
        <mxCell id="-2F_RLexDrQDR6lkoxeQ-25" style="edgeStyle=orthogonalEdgeStyle;rounded=0;orthogonalLoop=1;jettySize=auto;html=1;" edge="1" parent="1" source="-2F_RLexDrQDR6lkoxeQ-6" target="-2F_RLexDrQDR6lkoxeQ-26">
          <mxGeometry relative="1" as="geometry">
            <mxPoint x="280" y="930" as="targetPoint" />
          </mxGeometry>
        </mxCell>
        <mxCell id="-2F_RLexDrQDR6lkoxeQ-6" value="Usuario Rescatista" style="shape=document;whiteSpace=wrap;html=1;boundedLbl=1;" vertex="1" parent="1">
          <mxGeometry x="340" y="890" width="120" height="80" as="geometry" />
        </mxCell>
        <mxCell id="-2F_RLexDrQDR6lkoxeQ-7" style="edgeStyle=orthogonalEdgeStyle;rounded=0;orthogonalLoop=1;jettySize=auto;html=1;exitX=0;exitY=0.5;exitDx=0;exitDy=0;entryX=1.011;entryY=0.379;entryDx=0;entryDy=0;entryPerimeter=0;" edge="1" parent="1" source="-AzcmyxC4q3Ii_VXM3K7-1" target="-2F_RLexDrQDR6lkoxeQ-6">
          <mxGeometry relative="1" as="geometry" />
        </mxCell>
        <mxCell id="-2F_RLexDrQDR6lkoxeQ-28" style="edgeStyle=orthogonalEdgeStyle;rounded=0;orthogonalLoop=1;jettySize=auto;html=1;" edge="1" parent="1" source="-2F_RLexDrQDR6lkoxeQ-8" target="-2F_RLexDrQDR6lkoxeQ-27">
          <mxGeometry relative="1" as="geometry" />
        </mxCell>
        <mxCell id="-2F_RLexDrQDR6lkoxeQ-8" value="Usuario Adoptante" style="shape=document;whiteSpace=wrap;html=1;boundedLbl=1;" vertex="1" parent="1">
          <mxGeometry x="340" y="1000" width="120" height="80" as="geometry" />
        </mxCell>
        <mxCell id="-2F_RLexDrQDR6lkoxeQ-9" style="edgeStyle=orthogonalEdgeStyle;rounded=0;orthogonalLoop=1;jettySize=auto;html=1;entryX=0.986;entryY=0.375;entryDx=0;entryDy=0;entryPerimeter=0;" edge="1" parent="1" source="-AzcmyxC4q3Ii_VXM3K7-3" target="-2F_RLexDrQDR6lkoxeQ-8">
          <mxGeometry relative="1" as="geometry" />
        </mxCell>
        <mxCell id="-2F_RLexDrQDR6lkoxeQ-10" value="Si" style="text;html=1;align=center;verticalAlign=middle;resizable=0;points=[];autosize=1;strokeColor=none;fillColor=none;" vertex="1" parent="1">
          <mxGeometry x="475" y="548" width="30" height="30" as="geometry" />
        </mxCell>
        <mxCell id="-2F_RLexDrQDR6lkoxeQ-11" value="Si" style="text;html=1;align=center;verticalAlign=middle;resizable=0;points=[];autosize=1;strokeColor=none;fillColor=none;" vertex="1" parent="1">
          <mxGeometry x="475" y="668" width="30" height="30" as="geometry" />
        </mxCell>
        <mxCell id="-2F_RLexDrQDR6lkoxeQ-12" value="Si" style="text;html=1;align=center;verticalAlign=middle;resizable=0;points=[];autosize=1;strokeColor=none;fillColor=none;" vertex="1" parent="1">
          <mxGeometry x="475" y="780" width="30" height="30" as="geometry" />
        </mxCell>
        <mxCell id="-2F_RLexDrQDR6lkoxeQ-13" value="Si" style="text;html=1;align=center;verticalAlign=middle;resizable=0;points=[];autosize=1;strokeColor=none;fillColor=none;" vertex="1" parent="1">
          <mxGeometry x="475" y="888" width="30" height="30" as="geometry" />
        </mxCell>
        <mxCell id="-2F_RLexDrQDR6lkoxeQ-14" value="Si" style="text;html=1;align=center;verticalAlign=middle;resizable=0;points=[];autosize=1;strokeColor=none;fillColor=none;" vertex="1" parent="1">
          <mxGeometry x="475" y="998" width="30" height="30" as="geometry" />
        </mxCell>
        <mxCell id="-2F_RLexDrQDR6lkoxeQ-15" value="No" style="text;html=1;align=center;verticalAlign=middle;resizable=0;points=[];autosize=1;strokeColor=none;fillColor=none;" vertex="1" parent="1">
          <mxGeometry x="560" y="628" width="40" height="30" as="geometry" />
        </mxCell>
        <mxCell id="-2F_RLexDrQDR6lkoxeQ-16" value="No" style="text;html=1;align=center;verticalAlign=middle;resizable=0;points=[];autosize=1;strokeColor=none;fillColor=none;" vertex="1" parent="1">
          <mxGeometry x="560" y="740" width="40" height="30" as="geometry" />
        </mxCell>
        <mxCell id="-2F_RLexDrQDR6lkoxeQ-17" value="No" style="text;html=1;align=center;verticalAlign=middle;resizable=0;points=[];autosize=1;strokeColor=none;fillColor=none;" vertex="1" parent="1">
          <mxGeometry x="560" y="848" width="40" height="30" as="geometry" />
        </mxCell>
        <mxCell id="-2F_RLexDrQDR6lkoxeQ-18" value="No" style="text;html=1;align=center;verticalAlign=middle;resizable=0;points=[];autosize=1;strokeColor=none;fillColor=none;" vertex="1" parent="1">
          <mxGeometry x="560" y="968" width="40" height="30" as="geometry" />
        </mxCell>
        <mxCell id="-2F_RLexDrQDR6lkoxeQ-30" value="" style="edgeStyle=orthogonalEdgeStyle;rounded=0;orthogonalLoop=1;jettySize=auto;html=1;" edge="1" parent="1" source="-2F_RLexDrQDR6lkoxeQ-20" target="-2F_RLexDrQDR6lkoxeQ-29">
          <mxGeometry relative="1" as="geometry" />
        </mxCell>
        <mxCell id="-2F_RLexDrQDR6lkoxeQ-20" value="Menu Administrador" style="shape=process;whiteSpace=wrap;html=1;backgroundOutline=1;" vertex="1" parent="1">
          <mxGeometry x="160" y="555" width="120" height="60" as="geometry" />
        </mxCell>
        <mxCell id="-2F_RLexDrQDR6lkoxeQ-38" style="edgeStyle=orthogonalEdgeStyle;rounded=0;orthogonalLoop=1;jettySize=auto;html=1;entryX=1;entryY=0.5;entryDx=0;entryDy=0;" edge="1" parent="1" source="-2F_RLexDrQDR6lkoxeQ-22" target="-2F_RLexDrQDR6lkoxeQ-31">
          <mxGeometry relative="1" as="geometry" />
        </mxCell>
        <mxCell id="-2F_RLexDrQDR6lkoxeQ-22" value="Menu Veterinario" style="shape=process;whiteSpace=wrap;html=1;backgroundOutline=1;" vertex="1" parent="1">
          <mxGeometry x="160" y="670" width="120" height="60" as="geometry" />
        </mxCell>
        <mxCell id="-2F_RLexDrQDR6lkoxeQ-37" style="edgeStyle=orthogonalEdgeStyle;rounded=0;orthogonalLoop=1;jettySize=auto;html=1;entryX=1;entryY=0.5;entryDx=0;entryDy=0;" edge="1" parent="1" source="-2F_RLexDrQDR6lkoxeQ-24" target="-2F_RLexDrQDR6lkoxeQ-32">
          <mxGeometry relative="1" as="geometry" />
        </mxCell>
        <mxCell id="-2F_RLexDrQDR6lkoxeQ-24" value="Menu Voluntario" style="shape=process;whiteSpace=wrap;html=1;backgroundOutline=1;" vertex="1" parent="1">
          <mxGeometry x="160" y="790" width="120" height="60" as="geometry" />
        </mxCell>
        <mxCell id="-2F_RLexDrQDR6lkoxeQ-36" style="edgeStyle=orthogonalEdgeStyle;rounded=0;orthogonalLoop=1;jettySize=auto;html=1;entryX=1;entryY=0.5;entryDx=0;entryDy=0;" edge="1" parent="1" source="-2F_RLexDrQDR6lkoxeQ-26" target="-2F_RLexDrQDR6lkoxeQ-33">
          <mxGeometry relative="1" as="geometry" />
        </mxCell>
        <mxCell id="-2F_RLexDrQDR6lkoxeQ-26" value="Menu Rescatista" style="shape=process;whiteSpace=wrap;html=1;backgroundOutline=1;" vertex="1" parent="1">
          <mxGeometry x="160" y="900" width="120" height="60" as="geometry" />
        </mxCell>
        <mxCell id="-2F_RLexDrQDR6lkoxeQ-35" style="edgeStyle=orthogonalEdgeStyle;rounded=0;orthogonalLoop=1;jettySize=auto;html=1;entryX=1;entryY=0.5;entryDx=0;entryDy=0;" edge="1" parent="1" source="-2F_RLexDrQDR6lkoxeQ-27" target="-2F_RLexDrQDR6lkoxeQ-34">
          <mxGeometry relative="1" as="geometry" />
        </mxCell>
        <mxCell id="-2F_RLexDrQDR6lkoxeQ-27" value="Menu Adoptante" style="shape=process;whiteSpace=wrap;html=1;backgroundOutline=1;" vertex="1" parent="1">
          <mxGeometry x="160" y="1010" width="120" height="60" as="geometry" />
        </mxCell>
        <mxCell id="-2F_RLexDrQDR6lkoxeQ-29" value="2" style="ellipse;whiteSpace=wrap;html=1;" vertex="1" parent="1">
          <mxGeometry x="65" y="562.5" width="45" height="45" as="geometry" />
        </mxCell>
        <mxCell id="-2F_RLexDrQDR6lkoxeQ-31" value="3" style="ellipse;whiteSpace=wrap;html=1;" vertex="1" parent="1">
          <mxGeometry x="70" y="677.5" width="45" height="45" as="geometry" />
        </mxCell>
        <mxCell id="-2F_RLexDrQDR6lkoxeQ-32" value="4" style="ellipse;whiteSpace=wrap;html=1;" vertex="1" parent="1">
          <mxGeometry x="70" y="797.5" width="45" height="45" as="geometry" />
        </mxCell>
        <mxCell id="-2F_RLexDrQDR6lkoxeQ-33" value="5" style="ellipse;whiteSpace=wrap;html=1;" vertex="1" parent="1">
          <mxGeometry x="70" y="907.5" width="45" height="45" as="geometry" />
        </mxCell>
        <mxCell id="-2F_RLexDrQDR6lkoxeQ-34" value="6" style="ellipse;whiteSpace=wrap;html=1;" vertex="1" parent="1">
          <mxGeometry x="70" y="1017.5" width="45" height="45" as="geometry" />
        </mxCell>
        <mxCell id="-2F_RLexDrQDR6lkoxeQ-39" value="No" style="text;html=1;align=center;verticalAlign=middle;resizable=0;points=[];autosize=1;strokeColor=none;fillColor=none;" vertex="1" parent="1">
          <mxGeometry x="160" y="208" width="40" height="30" as="geometry" />
        </mxCell>
        <mxCell id="-2F_RLexDrQDR6lkoxeQ-42" value="" style="edgeStyle=orthogonalEdgeStyle;rounded=0;orthogonalLoop=1;jettySize=auto;html=1;" edge="1" parent="1" source="-2F_RLexDrQDR6lkoxeQ-40" target="-2F_RLexDrQDR6lkoxeQ-41">
          <mxGeometry relative="1" as="geometry" />
        </mxCell>
        <mxCell id="-2F_RLexDrQDR6lkoxeQ-40" value="2" style="ellipse;whiteSpace=wrap;html=1;" vertex="1" parent="1">
          <mxGeometry x="957.5" y="80" width="45" height="45" as="geometry" />
        </mxCell>
        <mxCell id="-2F_RLexDrQDR6lkoxeQ-44" value="" style="edgeStyle=orthogonalEdgeStyle;rounded=0;orthogonalLoop=1;jettySize=auto;html=1;" edge="1" parent="1" source="-2F_RLexDrQDR6lkoxeQ-41" target="-2F_RLexDrQDR6lkoxeQ-43">
          <mxGeometry relative="1" as="geometry" />
        </mxCell>
        <mxCell id="-2F_RLexDrQDR6lkoxeQ-41" value="Opc" style="shape=process;whiteSpace=wrap;html=1;backgroundOutline=1;" vertex="1" parent="1">
          <mxGeometry x="920" y="157.5" width="120" height="32.5" as="geometry" />
        </mxCell>
        <mxCell id="-2F_RLexDrQDR6lkoxeQ-48" style="edgeStyle=orthogonalEdgeStyle;rounded=0;orthogonalLoop=1;jettySize=auto;html=1;entryX=0.5;entryY=0;entryDx=0;entryDy=0;" edge="1" parent="1" source="-2F_RLexDrQDR6lkoxeQ-43" target="-2F_RLexDrQDR6lkoxeQ-45">
          <mxGeometry relative="1" as="geometry" />
        </mxCell>
        <mxCell id="-2F_RLexDrQDR6lkoxeQ-57" style="edgeStyle=orthogonalEdgeStyle;rounded=0;orthogonalLoop=1;jettySize=auto;html=1;exitX=1;exitY=0.5;exitDx=0;exitDy=0;entryX=0;entryY=0.5;entryDx=0;entryDy=0;" edge="1" parent="1" source="-2F_RLexDrQDR6lkoxeQ-43" target="-2F_RLexDrQDR6lkoxeQ-55">
          <mxGeometry relative="1" as="geometry" />
        </mxCell>
        <mxCell id="-2F_RLexDrQDR6lkoxeQ-43" value="Opc == 1" style="rhombus;whiteSpace=wrap;html=1;" vertex="1" parent="1">
          <mxGeometry x="940" y="225" width="80" height="80" as="geometry" />
        </mxCell>
        <mxCell id="-2F_RLexDrQDR6lkoxeQ-49" style="edgeStyle=orthogonalEdgeStyle;rounded=0;orthogonalLoop=1;jettySize=auto;html=1;entryX=0.5;entryY=0;entryDx=0;entryDy=0;" edge="1" parent="1" source="-2F_RLexDrQDR6lkoxeQ-45" target="-2F_RLexDrQDR6lkoxeQ-46">
          <mxGeometry relative="1" as="geometry" />
        </mxCell>
        <mxCell id="-2F_RLexDrQDR6lkoxeQ-117" value="" style="edgeStyle=orthogonalEdgeStyle;rounded=0;orthogonalLoop=1;jettySize=auto;html=1;" edge="1" parent="1" source="-2F_RLexDrQDR6lkoxeQ-45" target="-2F_RLexDrQDR6lkoxeQ-116">
          <mxGeometry relative="1" as="geometry" />
        </mxCell>
        <mxCell id="-2F_RLexDrQDR6lkoxeQ-45" value="Opc == 2" style="rhombus;whiteSpace=wrap;html=1;" vertex="1" parent="1">
          <mxGeometry x="940" y="340" width="80" height="80" as="geometry" />
        </mxCell>
        <mxCell id="-2F_RLexDrQDR6lkoxeQ-50" style="edgeStyle=orthogonalEdgeStyle;rounded=0;orthogonalLoop=1;jettySize=auto;html=1;entryX=0.5;entryY=0;entryDx=0;entryDy=0;" edge="1" parent="1" source="-2F_RLexDrQDR6lkoxeQ-46" target="-2F_RLexDrQDR6lkoxeQ-47">
          <mxGeometry relative="1" as="geometry" />
        </mxCell>
        <mxCell id="-2F_RLexDrQDR6lkoxeQ-46" value="Opc == 3" style="rhombus;whiteSpace=wrap;html=1;" vertex="1" parent="1">
          <mxGeometry x="840" y="808" width="80" height="80" as="geometry" />
        </mxCell>
        <mxCell id="-2F_RLexDrQDR6lkoxeQ-52" style="edgeStyle=orthogonalEdgeStyle;rounded=0;orthogonalLoop=1;jettySize=auto;html=1;entryX=0.5;entryY=0;entryDx=0;entryDy=0;" edge="1" parent="1" source="-2F_RLexDrQDR6lkoxeQ-47" target="-2F_RLexDrQDR6lkoxeQ-51">
          <mxGeometry relative="1" as="geometry" />
        </mxCell>
        <mxCell id="-2F_RLexDrQDR6lkoxeQ-47" value="Opc == 4" style="rhombus;whiteSpace=wrap;html=1;" vertex="1" parent="1">
          <mxGeometry x="840" y="937.5" width="80" height="80" as="geometry" />
        </mxCell>
        <mxCell id="-2F_RLexDrQDR6lkoxeQ-51" value="Opc == 5" style="rhombus;whiteSpace=wrap;html=1;" vertex="1" parent="1">
          <mxGeometry x="840" y="1050" width="80" height="80" as="geometry" />
        </mxCell>
        <mxCell id="-2F_RLexDrQDR6lkoxeQ-73" value="" style="edgeStyle=orthogonalEdgeStyle;rounded=0;orthogonalLoop=1;jettySize=auto;html=1;" edge="1" parent="1" source="-2F_RLexDrQDR6lkoxeQ-55" target="-2F_RLexDrQDR6lkoxeQ-72">
          <mxGeometry relative="1" as="geometry" />
        </mxCell>
        <mxCell id="-2F_RLexDrQDR6lkoxeQ-55" value="Perfil Administrador" style="shape=document;whiteSpace=wrap;html=1;boundedLbl=1;" vertex="1" parent="1">
          <mxGeometry x="1110" y="225" width="120" height="80" as="geometry" />
        </mxCell>
        <mxCell id="-2F_RLexDrQDR6lkoxeQ-75" value="" style="edgeStyle=orthogonalEdgeStyle;rounded=0;orthogonalLoop=1;jettySize=auto;html=1;" edge="1" parent="1" source="-2F_RLexDrQDR6lkoxeQ-72" target="-2F_RLexDrQDR6lkoxeQ-74">
          <mxGeometry relative="1" as="geometry" />
        </mxCell>
        <mxCell id="-2F_RLexDrQDR6lkoxeQ-72" value="Modoficar Perfil&lt;div&gt;Imprimir Perfil&lt;br&gt;&lt;div&gt;&lt;br&gt;&lt;/div&gt;&lt;/div&gt;" style="whiteSpace=wrap;html=1;" vertex="1" parent="1">
          <mxGeometry x="1300" y="235" width="120" height="60" as="geometry" />
        </mxCell>
        <mxCell id="-2F_RLexDrQDR6lkoxeQ-77" value="" style="edgeStyle=orthogonalEdgeStyle;rounded=0;orthogonalLoop=1;jettySize=auto;html=1;" edge="1" parent="1" source="-2F_RLexDrQDR6lkoxeQ-74" target="-2F_RLexDrQDR6lkoxeQ-76">
          <mxGeometry relative="1" as="geometry" />
        </mxCell>
        <mxCell id="-2F_RLexDrQDR6lkoxeQ-98" style="edgeStyle=orthogonalEdgeStyle;rounded=0;orthogonalLoop=1;jettySize=auto;html=1;exitX=0;exitY=0.5;exitDx=0;exitDy=0;entryX=1;entryY=0.5;entryDx=0;entryDy=0;" edge="1" parent="1" source="-2F_RLexDrQDR6lkoxeQ-74" target="-2F_RLexDrQDR6lkoxeQ-97">
          <mxGeometry relative="1" as="geometry" />
        </mxCell>
        <mxCell id="-2F_RLexDrQDR6lkoxeQ-74" value="Opc == 1" style="rhombus;whiteSpace=wrap;html=1;" vertex="1" parent="1">
          <mxGeometry x="1320" y="110" width="80" height="80" as="geometry" />
        </mxCell>
        <mxCell id="-2F_RLexDrQDR6lkoxeQ-79" value="" style="edgeStyle=orthogonalEdgeStyle;rounded=0;orthogonalLoop=1;jettySize=auto;html=1;" edge="1" parent="1" source="-2F_RLexDrQDR6lkoxeQ-76" target="-2F_RLexDrQDR6lkoxeQ-78">
          <mxGeometry relative="1" as="geometry" />
        </mxCell>
        <mxCell id="-2F_RLexDrQDR6lkoxeQ-76" value="Datos Perfil" style="shape=process;whiteSpace=wrap;html=1;backgroundOutline=1;" vertex="1" parent="1">
          <mxGeometry x="1460" y="120" width="120" height="60" as="geometry" />
        </mxCell>
        <mxCell id="-2F_RLexDrQDR6lkoxeQ-81" value="" style="edgeStyle=orthogonalEdgeStyle;rounded=0;orthogonalLoop=1;jettySize=auto;html=1;" edge="1" parent="1" source="-2F_RLexDrQDR6lkoxeQ-78" target="-2F_RLexDrQDR6lkoxeQ-80">
          <mxGeometry relative="1" as="geometry" />
        </mxCell>
        <mxCell id="-2F_RLexDrQDR6lkoxeQ-88" style="edgeStyle=orthogonalEdgeStyle;rounded=0;orthogonalLoop=1;jettySize=auto;html=1;entryX=0;entryY=0.5;entryDx=0;entryDy=0;" edge="1" parent="1" source="-2F_RLexDrQDR6lkoxeQ-78" target="-2F_RLexDrQDR6lkoxeQ-87">
          <mxGeometry relative="1" as="geometry" />
        </mxCell>
        <mxCell id="-2F_RLexDrQDR6lkoxeQ-78" value="Modificar Perfil == True" style="rhombus;whiteSpace=wrap;html=1;" vertex="1" parent="1">
          <mxGeometry x="1480" y="210" width="80" height="80" as="geometry" />
        </mxCell>
        <mxCell id="-2F_RLexDrQDR6lkoxeQ-83" value="" style="edgeStyle=orthogonalEdgeStyle;rounded=0;orthogonalLoop=1;jettySize=auto;html=1;" edge="1" parent="1" source="-2F_RLexDrQDR6lkoxeQ-80" target="-2F_RLexDrQDR6lkoxeQ-82">
          <mxGeometry relative="1" as="geometry" />
        </mxCell>
        <mxCell id="-2F_RLexDrQDR6lkoxeQ-80" value="Modificando Datos" style="shape=process;whiteSpace=wrap;html=1;backgroundOutline=1;" vertex="1" parent="1">
          <mxGeometry x="1460" y="333" width="120" height="60" as="geometry" />
        </mxCell>
        <mxCell id="-2F_RLexDrQDR6lkoxeQ-106" style="edgeStyle=orthogonalEdgeStyle;rounded=0;orthogonalLoop=1;jettySize=auto;html=1;" edge="1" parent="1" source="-2F_RLexDrQDR6lkoxeQ-82">
          <mxGeometry relative="1" as="geometry">
            <mxPoint x="1520" y="550" as="targetPoint" />
          </mxGeometry>
        </mxCell>
        <mxCell id="-2F_RLexDrQDR6lkoxeQ-112" style="edgeStyle=orthogonalEdgeStyle;rounded=0;orthogonalLoop=1;jettySize=auto;html=1;entryX=1;entryY=0.5;entryDx=0;entryDy=0;exitX=1;exitY=0.5;exitDx=0;exitDy=0;" edge="1" parent="1" source="-2F_RLexDrQDR6lkoxeQ-82" target="-2F_RLexDrQDR6lkoxeQ-80">
          <mxGeometry relative="1" as="geometry">
            <Array as="points">
              <mxPoint x="1620" y="475" />
              <mxPoint x="1620" y="363" />
            </Array>
          </mxGeometry>
        </mxCell>
        <mxCell id="-2F_RLexDrQDR6lkoxeQ-82" value="Datos == True" style="rhombus;whiteSpace=wrap;html=1;" vertex="1" parent="1">
          <mxGeometry x="1480" y="435" width="80" height="80" as="geometry" />
        </mxCell>
        <mxCell id="-2F_RLexDrQDR6lkoxeQ-84" value="Si" style="text;html=1;align=center;verticalAlign=middle;resizable=0;points=[];autosize=1;strokeColor=none;fillColor=none;" vertex="1" parent="1">
          <mxGeometry x="1525" y="398" width="30" height="30" as="geometry" />
        </mxCell>
        <mxCell id="-2F_RLexDrQDR6lkoxeQ-85" value="Si" style="text;html=1;align=center;verticalAlign=middle;resizable=0;points=[];autosize=1;strokeColor=none;fillColor=none;" vertex="1" parent="1">
          <mxGeometry x="1525" y="288" width="30" height="30" as="geometry" />
        </mxCell>
        <mxCell id="-2F_RLexDrQDR6lkoxeQ-86" value="Si" style="text;html=1;align=center;verticalAlign=middle;resizable=0;points=[];autosize=1;strokeColor=none;fillColor=none;" vertex="1" parent="1">
          <mxGeometry x="1405" y="118" width="30" height="30" as="geometry" />
        </mxCell>
        <mxCell id="-2F_RLexDrQDR6lkoxeQ-87" value="7" style="ellipse;whiteSpace=wrap;html=1;" vertex="1" parent="1">
          <mxGeometry x="1600" y="230" width="45" height="40" as="geometry" />
        </mxCell>
        <mxCell id="-2F_RLexDrQDR6lkoxeQ-103" style="edgeStyle=orthogonalEdgeStyle;rounded=0;orthogonalLoop=1;jettySize=auto;html=1;entryX=0.5;entryY=0;entryDx=0;entryDy=0;" edge="1" parent="1" source="-2F_RLexDrQDR6lkoxeQ-89" target="-2F_RLexDrQDR6lkoxeQ-55">
          <mxGeometry relative="1" as="geometry" />
        </mxCell>
        <mxCell id="-2F_RLexDrQDR6lkoxeQ-89" value="7" style="ellipse;whiteSpace=wrap;html=1;" vertex="1" parent="1">
          <mxGeometry x="1120" y="125" width="45" height="40" as="geometry" />
        </mxCell>
        <mxCell id="-2F_RLexDrQDR6lkoxeQ-100" style="edgeStyle=orthogonalEdgeStyle;rounded=0;orthogonalLoop=1;jettySize=auto;html=1;exitX=0.5;exitY=0;exitDx=0;exitDy=0;" edge="1" parent="1" source="-2F_RLexDrQDR6lkoxeQ-97">
          <mxGeometry relative="1" as="geometry">
            <mxPoint x="1260" y="70" as="targetPoint" />
          </mxGeometry>
        </mxCell>
        <mxCell id="-2F_RLexDrQDR6lkoxeQ-104" style="edgeStyle=orthogonalEdgeStyle;rounded=0;orthogonalLoop=1;jettySize=auto;html=1;entryX=1;entryY=0.5;entryDx=0;entryDy=0;" edge="1" parent="1" source="-2F_RLexDrQDR6lkoxeQ-97" target="-2F_RLexDrQDR6lkoxeQ-89">
          <mxGeometry relative="1" as="geometry" />
        </mxCell>
        <mxCell id="-2F_RLexDrQDR6lkoxeQ-97" value="Opc == 2" style="rhombus;whiteSpace=wrap;html=1;" vertex="1" parent="1">
          <mxGeometry x="1220" y="110" width="80" height="80" as="geometry" />
        </mxCell>
        <mxCell id="-2F_RLexDrQDR6lkoxeQ-99" value="No" style="text;html=1;align=center;verticalAlign=middle;resizable=0;points=[];autosize=1;strokeColor=none;fillColor=none;" vertex="1" parent="1">
          <mxGeometry x="1290" y="110" width="40" height="30" as="geometry" />
        </mxCell>
        <mxCell id="-2F_RLexDrQDR6lkoxeQ-101" value="Si" style="text;html=1;align=center;verticalAlign=middle;resizable=0;points=[];autosize=1;strokeColor=none;fillColor=none;" vertex="1" parent="1">
          <mxGeometry x="1270" y="80" width="30" height="30" as="geometry" />
        </mxCell>
        <mxCell id="-2F_RLexDrQDR6lkoxeQ-102" value="Imprimir Perfil" style="shape=document;whiteSpace=wrap;html=1;boundedLbl=1;" vertex="1" parent="1">
          <mxGeometry x="1215" y="20" width="90" height="60" as="geometry" />
        </mxCell>
        <mxCell id="-2F_RLexDrQDR6lkoxeQ-105" value="No" style="text;html=1;align=center;verticalAlign=middle;resizable=0;points=[];autosize=1;strokeColor=none;fillColor=none;" vertex="1" parent="1">
          <mxGeometry x="1180" y="118" width="40" height="30" as="geometry" />
        </mxCell>
        <mxCell id="-2F_RLexDrQDR6lkoxeQ-107" value="Si" style="text;html=1;align=center;verticalAlign=middle;resizable=0;points=[];autosize=1;strokeColor=none;fillColor=none;" vertex="1" parent="1">
          <mxGeometry x="1525" y="518" width="30" height="30" as="geometry" />
        </mxCell>
        <mxCell id="-2F_RLexDrQDR6lkoxeQ-108" value="8" style="ellipse;whiteSpace=wrap;html=1;" vertex="1" parent="1">
          <mxGeometry x="1497.5" y="548" width="45" height="40" as="geometry" />
        </mxCell>
        <mxCell id="-2F_RLexDrQDR6lkoxeQ-109" value="8" style="ellipse;whiteSpace=wrap;html=1;" vertex="1" parent="1">
          <mxGeometry x="1147.5" y="318" width="45" height="40" as="geometry" />
        </mxCell>
        <mxCell id="-2F_RLexDrQDR6lkoxeQ-111" style="edgeStyle=orthogonalEdgeStyle;rounded=0;orthogonalLoop=1;jettySize=auto;html=1;entryX=0.5;entryY=0.863;entryDx=0;entryDy=0;entryPerimeter=0;" edge="1" parent="1" source="-2F_RLexDrQDR6lkoxeQ-109" target="-2F_RLexDrQDR6lkoxeQ-55">
          <mxGeometry relative="1" as="geometry" />
        </mxCell>
        <mxCell id="-2F_RLexDrQDR6lkoxeQ-113" value="No" style="text;html=1;align=center;verticalAlign=middle;resizable=0;points=[];autosize=1;strokeColor=none;fillColor=none;" vertex="1" parent="1">
          <mxGeometry x="1570" y="438" width="40" height="30" as="geometry" />
        </mxCell>
        <mxCell id="-2F_RLexDrQDR6lkoxeQ-119" value="" style="edgeStyle=orthogonalEdgeStyle;rounded=0;orthogonalLoop=1;jettySize=auto;html=1;" edge="1" parent="1" source="-2F_RLexDrQDR6lkoxeQ-116">
          <mxGeometry relative="1" as="geometry">
            <mxPoint x="1260" y="428" as="targetPoint" />
          </mxGeometry>
        </mxCell>
        <mxCell id="-2F_RLexDrQDR6lkoxeQ-116" value="Nuevo Usuario&lt;div&gt;Admin Usuarios&lt;/div&gt;&lt;div&gt;Reportes&lt;/div&gt;" style="shape=document;whiteSpace=wrap;html=1;boundedLbl=1;" vertex="1" parent="1">
          <mxGeometry x="1110" y="388" width="120" height="80" as="geometry" />
        </mxCell>
        <mxCell id="-2F_RLexDrQDR6lkoxeQ-122" value="" style="edgeStyle=orthogonalEdgeStyle;rounded=0;orthogonalLoop=1;jettySize=auto;html=1;" edge="1" parent="1" source="-2F_RLexDrQDR6lkoxeQ-120" target="-2F_RLexDrQDR6lkoxeQ-121">
          <mxGeometry relative="1" as="geometry" />
        </mxCell>
        <mxCell id="-2F_RLexDrQDR6lkoxeQ-120" value="Opc" style="shape=process;whiteSpace=wrap;html=1;backgroundOutline=1;" vertex="1" parent="1">
          <mxGeometry x="1260" y="410" width="120" height="30" as="geometry" />
        </mxCell>
        <mxCell id="-2F_RLexDrQDR6lkoxeQ-124" value="" style="edgeStyle=orthogonalEdgeStyle;rounded=0;orthogonalLoop=1;jettySize=auto;html=1;" edge="1" parent="1" source="-2F_RLexDrQDR6lkoxeQ-121">
          <mxGeometry relative="1" as="geometry">
            <mxPoint x="1320" y="572.5" as="targetPoint" />
          </mxGeometry>
        </mxCell>
        <mxCell id="-2F_RLexDrQDR6lkoxeQ-139" style="edgeStyle=orthogonalEdgeStyle;rounded=0;orthogonalLoop=1;jettySize=auto;html=1;" edge="1" parent="1" source="-2F_RLexDrQDR6lkoxeQ-121">
          <mxGeometry relative="1" as="geometry">
            <mxPoint x="1230" y="500" as="targetPoint" />
          </mxGeometry>
        </mxCell>
        <mxCell id="-2F_RLexDrQDR6lkoxeQ-121" value="Nuevo User == tru" style="rhombus;whiteSpace=wrap;html=1;" vertex="1" parent="1">
          <mxGeometry x="1280" y="460" width="80" height="80" as="geometry" />
        </mxCell>
        <mxCell id="-2F_RLexDrQDR6lkoxeQ-125" value="Si" style="text;html=1;align=center;verticalAlign=middle;resizable=0;points=[];autosize=1;strokeColor=none;fillColor=none;" vertex="1" parent="1">
          <mxGeometry x="1330" y="532.5" width="30" height="30" as="geometry" />
        </mxCell>
        <mxCell id="-2F_RLexDrQDR6lkoxeQ-128" value="" style="edgeStyle=orthogonalEdgeStyle;rounded=0;orthogonalLoop=1;jettySize=auto;html=1;" edge="1" parent="1" source="-2F_RLexDrQDR6lkoxeQ-126" target="-2F_RLexDrQDR6lkoxeQ-127">
          <mxGeometry relative="1" as="geometry" />
        </mxCell>
        <mxCell id="-2F_RLexDrQDR6lkoxeQ-126" value="Registro Usuario" style="shape=process;whiteSpace=wrap;html=1;backgroundOutline=1;" vertex="1" parent="1">
          <mxGeometry x="1260" y="572.5" width="120" height="37.5" as="geometry" />
        </mxCell>
        <mxCell id="-2F_RLexDrQDR6lkoxeQ-130" value="" style="edgeStyle=orthogonalEdgeStyle;rounded=0;orthogonalLoop=1;jettySize=auto;html=1;" edge="1" parent="1" source="-2F_RLexDrQDR6lkoxeQ-127" target="-2F_RLexDrQDR6lkoxeQ-129">
          <mxGeometry relative="1" as="geometry" />
        </mxCell>
        <mxCell id="-2F_RLexDrQDR6lkoxeQ-132" style="edgeStyle=orthogonalEdgeStyle;rounded=0;orthogonalLoop=1;jettySize=auto;html=1;entryX=1;entryY=0.5;entryDx=0;entryDy=0;exitX=1;exitY=0.5;exitDx=0;exitDy=0;" edge="1" parent="1" source="-2F_RLexDrQDR6lkoxeQ-127" target="-2F_RLexDrQDR6lkoxeQ-126">
          <mxGeometry relative="1" as="geometry">
            <Array as="points">
              <mxPoint x="1420" y="677" />
              <mxPoint x="1420" y="591" />
            </Array>
          </mxGeometry>
        </mxCell>
        <mxCell id="-2F_RLexDrQDR6lkoxeQ-127" value="Registro == true" style="rhombus;whiteSpace=wrap;html=1;" vertex="1" parent="1">
          <mxGeometry x="1280" y="643" width="80" height="67" as="geometry" />
        </mxCell>
        <mxCell id="-2F_RLexDrQDR6lkoxeQ-134" style="edgeStyle=orthogonalEdgeStyle;rounded=0;orthogonalLoop=1;jettySize=auto;html=1;" edge="1" parent="1" source="-2F_RLexDrQDR6lkoxeQ-129">
          <mxGeometry relative="1" as="geometry">
            <mxPoint x="1390" y="770" as="targetPoint" />
          </mxGeometry>
        </mxCell>
        <mxCell id="-2F_RLexDrQDR6lkoxeQ-129" value="Registro Ok" style="shape=document;whiteSpace=wrap;html=1;boundedLbl=1;" vertex="1" parent="1">
          <mxGeometry x="1285" y="740" width="70" height="60" as="geometry" />
        </mxCell>
        <mxCell id="-2F_RLexDrQDR6lkoxeQ-131" value="Si" style="text;html=1;align=center;verticalAlign=middle;resizable=0;points=[];autosize=1;strokeColor=none;fillColor=none;" vertex="1" parent="1">
          <mxGeometry x="1325" y="708" width="30" height="30" as="geometry" />
        </mxCell>
        <mxCell id="-2F_RLexDrQDR6lkoxeQ-133" value="No" style="text;html=1;align=center;verticalAlign=middle;resizable=0;points=[];autosize=1;strokeColor=none;fillColor=none;" vertex="1" parent="1">
          <mxGeometry x="1360" y="678" width="40" height="30" as="geometry" />
        </mxCell>
        <mxCell id="-2F_RLexDrQDR6lkoxeQ-135" value="9" style="ellipse;whiteSpace=wrap;html=1;" vertex="1" parent="1">
          <mxGeometry x="1390" y="750" width="45" height="40" as="geometry" />
        </mxCell>
        <mxCell id="-2F_RLexDrQDR6lkoxeQ-137" value="" style="edgeStyle=orthogonalEdgeStyle;rounded=0;orthogonalLoop=1;jettySize=auto;html=1;exitX=0;exitY=0.5;exitDx=0;exitDy=0;" edge="1" parent="1" source="-2F_RLexDrQDR6lkoxeQ-136" target="-2F_RLexDrQDR6lkoxeQ-116">
          <mxGeometry relative="1" as="geometry">
            <Array as="points">
              <mxPoint x="1230" y="353" />
              <mxPoint x="1230" y="370" />
              <mxPoint x="1180" y="370" />
            </Array>
          </mxGeometry>
        </mxCell>
        <mxCell id="-2F_RLexDrQDR6lkoxeQ-136" value="9" style="ellipse;whiteSpace=wrap;html=1;" vertex="1" parent="1">
          <mxGeometry x="1245" y="333" width="45" height="40" as="geometry" />
        </mxCell>
        <mxCell id="-2F_RLexDrQDR6lkoxeQ-143" value="" style="edgeStyle=orthogonalEdgeStyle;rounded=0;orthogonalLoop=1;jettySize=auto;html=1;" edge="1" parent="1" source="-2F_RLexDrQDR6lkoxeQ-140" target="-2F_RLexDrQDR6lkoxeQ-142">
          <mxGeometry relative="1" as="geometry" />
        </mxCell>
        <mxCell id="-2F_RLexDrQDR6lkoxeQ-146" value="" style="edgeStyle=orthogonalEdgeStyle;rounded=0;orthogonalLoop=1;jettySize=auto;html=1;" edge="1" parent="1" source="-2F_RLexDrQDR6lkoxeQ-140" target="-2F_RLexDrQDR6lkoxeQ-145">
          <mxGeometry relative="1" as="geometry" />
        </mxCell>
        <mxCell id="-2F_RLexDrQDR6lkoxeQ-140" value="Update User == true" style="rhombus;whiteSpace=wrap;html=1;" vertex="1" parent="1">
          <mxGeometry x="1150" y="460" width="80" height="80" as="geometry" />
        </mxCell>
        <mxCell id="-2F_RLexDrQDR6lkoxeQ-141" value="No" style="text;html=1;align=center;verticalAlign=middle;resizable=0;points=[];autosize=1;strokeColor=none;fillColor=none;" vertex="1" parent="1">
          <mxGeometry x="1240" y="468" width="40" height="30" as="geometry" />
        </mxCell>
        <mxCell id="-2F_RLexDrQDR6lkoxeQ-159" value="" style="edgeStyle=orthogonalEdgeStyle;rounded=0;orthogonalLoop=1;jettySize=auto;html=1;" edge="1" parent="1" source="-2F_RLexDrQDR6lkoxeQ-142" target="-2F_RLexDrQDR6lkoxeQ-158">
          <mxGeometry relative="1" as="geometry" />
        </mxCell>
        <mxCell id="-2F_RLexDrQDR6lkoxeQ-142" value="Delate User == true" style="rhombus;whiteSpace=wrap;html=1;" vertex="1" parent="1">
          <mxGeometry x="960" y="460" width="80" height="80" as="geometry" />
        </mxCell>
        <mxCell id="-2F_RLexDrQDR6lkoxeQ-144" value="No" style="text;html=1;align=center;verticalAlign=middle;resizable=0;points=[];autosize=1;strokeColor=none;fillColor=none;" vertex="1" parent="1">
          <mxGeometry x="1110" y="468" width="40" height="30" as="geometry" />
        </mxCell>
        <mxCell id="-2F_RLexDrQDR6lkoxeQ-148" style="edgeStyle=orthogonalEdgeStyle;rounded=0;orthogonalLoop=1;jettySize=auto;html=1;exitX=0.5;exitY=1;exitDx=0;exitDy=0;entryX=0.5;entryY=0;entryDx=0;entryDy=0;" edge="1" parent="1" source="-2F_RLexDrQDR6lkoxeQ-145" target="-2F_RLexDrQDR6lkoxeQ-147">
          <mxGeometry relative="1" as="geometry" />
        </mxCell>
        <mxCell id="-2F_RLexDrQDR6lkoxeQ-145" value="Update Usuario" style="shape=process;whiteSpace=wrap;html=1;backgroundOutline=1;" vertex="1" parent="1">
          <mxGeometry x="1130" y="573" width="120" height="37" as="geometry" />
        </mxCell>
        <mxCell id="-2F_RLexDrQDR6lkoxeQ-149" style="edgeStyle=orthogonalEdgeStyle;rounded=0;orthogonalLoop=1;jettySize=auto;html=1;entryX=0;entryY=0.5;entryDx=0;entryDy=0;exitX=0;exitY=0.5;exitDx=0;exitDy=0;" edge="1" parent="1" source="-2F_RLexDrQDR6lkoxeQ-147" target="-2F_RLexDrQDR6lkoxeQ-145">
          <mxGeometry relative="1" as="geometry">
            <Array as="points">
              <mxPoint x="1100" y="677" />
              <mxPoint x="1100" y="592" />
            </Array>
          </mxGeometry>
        </mxCell>
        <mxCell id="-2F_RLexDrQDR6lkoxeQ-152" style="edgeStyle=orthogonalEdgeStyle;rounded=0;orthogonalLoop=1;jettySize=auto;html=1;entryX=0.5;entryY=0;entryDx=0;entryDy=0;" edge="1" parent="1" source="-2F_RLexDrQDR6lkoxeQ-147" target="-2F_RLexDrQDR6lkoxeQ-151">
          <mxGeometry relative="1" as="geometry" />
        </mxCell>
        <mxCell id="-2F_RLexDrQDR6lkoxeQ-147" value="Update == true" style="rhombus;whiteSpace=wrap;html=1;" vertex="1" parent="1">
          <mxGeometry x="1147.5" y="643" width="80" height="67" as="geometry" />
        </mxCell>
        <mxCell id="-2F_RLexDrQDR6lkoxeQ-150" value="No" style="text;html=1;align=center;verticalAlign=middle;resizable=0;points=[];autosize=1;strokeColor=none;fillColor=none;" vertex="1" parent="1">
          <mxGeometry x="1110" y="643" width="40" height="30" as="geometry" />
        </mxCell>
        <mxCell id="-2F_RLexDrQDR6lkoxeQ-154" style="edgeStyle=orthogonalEdgeStyle;rounded=0;orthogonalLoop=1;jettySize=auto;html=1;entryX=1;entryY=0.5;entryDx=0;entryDy=0;" edge="1" parent="1" source="-2F_RLexDrQDR6lkoxeQ-151" target="-2F_RLexDrQDR6lkoxeQ-153">
          <mxGeometry relative="1" as="geometry" />
        </mxCell>
        <mxCell id="-2F_RLexDrQDR6lkoxeQ-151" value="Update Ok" style="shape=document;whiteSpace=wrap;html=1;boundedLbl=1;" vertex="1" parent="1">
          <mxGeometry x="1152.5" y="740" width="70" height="60" as="geometry" />
        </mxCell>
        <mxCell id="-2F_RLexDrQDR6lkoxeQ-153" value="9" style="ellipse;whiteSpace=wrap;html=1;" vertex="1" parent="1">
          <mxGeometry x="1075" y="750" width="45" height="40" as="geometry" />
        </mxCell>
        <mxCell id="-2F_RLexDrQDR6lkoxeQ-155" value="Si" style="text;html=1;align=center;verticalAlign=middle;resizable=0;points=[];autosize=1;strokeColor=none;fillColor=none;" vertex="1" parent="1">
          <mxGeometry x="1025" y="348" width="30" height="30" as="geometry" />
        </mxCell>
        <mxCell id="-2F_RLexDrQDR6lkoxeQ-156" value="No" style="text;html=1;align=center;verticalAlign=middle;resizable=0;points=[];autosize=1;strokeColor=none;fillColor=none;" vertex="1" parent="1">
          <mxGeometry x="890" y="348" width="40" height="30" as="geometry" />
        </mxCell>
        <mxCell id="-2F_RLexDrQDR6lkoxeQ-161" style="edgeStyle=orthogonalEdgeStyle;rounded=0;orthogonalLoop=1;jettySize=auto;html=1;entryX=0.5;entryY=0;entryDx=0;entryDy=0;" edge="1" parent="1" source="-2F_RLexDrQDR6lkoxeQ-158" target="-2F_RLexDrQDR6lkoxeQ-160">
          <mxGeometry relative="1" as="geometry" />
        </mxCell>
        <mxCell id="-2F_RLexDrQDR6lkoxeQ-158" value="Delete User" style="shape=process;whiteSpace=wrap;html=1;backgroundOutline=1;" vertex="1" parent="1">
          <mxGeometry x="940" y="573" width="120" height="37" as="geometry" />
        </mxCell>
        <mxCell id="-2F_RLexDrQDR6lkoxeQ-162" style="edgeStyle=orthogonalEdgeStyle;rounded=0;orthogonalLoop=1;jettySize=auto;html=1;entryX=0;entryY=0.5;entryDx=0;entryDy=0;exitX=0;exitY=0.5;exitDx=0;exitDy=0;" edge="1" parent="1" source="-2F_RLexDrQDR6lkoxeQ-160" target="-2F_RLexDrQDR6lkoxeQ-158">
          <mxGeometry relative="1" as="geometry" />
        </mxCell>
        <mxCell id="-2F_RLexDrQDR6lkoxeQ-165" style="edgeStyle=orthogonalEdgeStyle;rounded=0;orthogonalLoop=1;jettySize=auto;html=1;entryX=0.5;entryY=0;entryDx=0;entryDy=0;" edge="1" parent="1" source="-2F_RLexDrQDR6lkoxeQ-160" target="-2F_RLexDrQDR6lkoxeQ-164">
          <mxGeometry relative="1" as="geometry" />
        </mxCell>
        <mxCell id="-2F_RLexDrQDR6lkoxeQ-160" value="Delete == true" style="rhombus;whiteSpace=wrap;html=1;" vertex="1" parent="1">
          <mxGeometry x="960" y="643" width="80" height="67" as="geometry" />
        </mxCell>
        <mxCell id="-2F_RLexDrQDR6lkoxeQ-163" value="No" style="text;html=1;align=center;verticalAlign=middle;resizable=0;points=[];autosize=1;strokeColor=none;fillColor=none;" vertex="1" parent="1">
          <mxGeometry x="930" y="638" width="40" height="30" as="geometry" />
        </mxCell>
        <mxCell id="-2F_RLexDrQDR6lkoxeQ-167" style="edgeStyle=orthogonalEdgeStyle;rounded=0;orthogonalLoop=1;jettySize=auto;html=1;entryX=0;entryY=0.5;entryDx=0;entryDy=0;" edge="1" parent="1" source="-2F_RLexDrQDR6lkoxeQ-164" target="-2F_RLexDrQDR6lkoxeQ-153">
          <mxGeometry relative="1" as="geometry" />
        </mxCell>
        <mxCell id="-2F_RLexDrQDR6lkoxeQ-164" value="Delete Ok" style="shape=document;whiteSpace=wrap;html=1;boundedLbl=1;" vertex="1" parent="1">
          <mxGeometry x="965" y="740" width="70" height="60" as="geometry" />
        </mxCell>
        <mxCell id="-2F_RLexDrQDR6lkoxeQ-166" value="Si" style="text;html=1;align=center;verticalAlign=middle;resizable=0;points=[];autosize=1;strokeColor=none;fillColor=none;" vertex="1" parent="1">
          <mxGeometry x="1005" y="708" width="30" height="30" as="geometry" />
        </mxCell>
      </root>
    </mxGraphModel>
  </diagram>
  <diagram name="Casos_de_Uso" id="rV53n7NDXpZb0pyt_nD2">
    <mxGraphModel dx="794" dy="432" grid="1" gridSize="10" guides="1" tooltips="1" connect="1" arrows="1" fold="1" page="1" pageScale="1" pageWidth="827" pageHeight="1169" math="0" shadow="0">
      <root>
        <mxCell id="0" />
        <mxCell id="1" parent="0" />
        <mxCell id="jY5iZFQW-tw8f92g8F53-1" value="AdminPets" style="text;html=1;align=center;verticalAlign=middle;resizable=0;points=[];autosize=1;strokeColor=none;fillColor=none;" vertex="1" parent="1">
          <mxGeometry x="345" y="20" width="80" height="30" as="geometry" />
        </mxCell>
        <mxCell id="jY5iZFQW-tw8f92g8F53-43" style="edgeStyle=orthogonalEdgeStyle;rounded=0;orthogonalLoop=1;jettySize=auto;html=1;entryX=1;entryY=0.5;entryDx=0;entryDy=0;fillColor=#ffe6cc;strokeColor=#d79b00;" edge="1" parent="1" source="jY5iZFQW-tw8f92g8F53-2" target="jY5iZFQW-tw8f92g8F53-19">
          <mxGeometry relative="1" as="geometry">
            <Array as="points">
              <mxPoint x="460" y="350" />
              <mxPoint x="460" y="255" />
            </Array>
          </mxGeometry>
        </mxCell>
        <mxCell id="jY5iZFQW-tw8f92g8F53-44" style="edgeStyle=orthogonalEdgeStyle;rounded=0;orthogonalLoop=1;jettySize=auto;html=1;entryX=1;entryY=0.5;entryDx=0;entryDy=0;fillColor=#ffe6cc;strokeColor=#d79b00;" edge="1" parent="1" source="jY5iZFQW-tw8f92g8F53-2" target="jY5iZFQW-tw8f92g8F53-14">
          <mxGeometry relative="1" as="geometry" />
        </mxCell>
        <mxCell id="jY5iZFQW-tw8f92g8F53-45" style="edgeStyle=orthogonalEdgeStyle;rounded=0;orthogonalLoop=1;jettySize=auto;html=1;entryX=0.5;entryY=1;entryDx=0;entryDy=0;fillColor=#ffe6cc;strokeColor=#d79b00;" edge="1" parent="1" source="jY5iZFQW-tw8f92g8F53-2" target="jY5iZFQW-tw8f92g8F53-22">
          <mxGeometry relative="1" as="geometry" />
        </mxCell>
        <mxCell id="jY5iZFQW-tw8f92g8F53-2" value="veterinario" style="shape=umlActor;verticalLabelPosition=bottom;verticalAlign=top;html=1;fillColor=#ffe6cc;strokeColor=#d79b00;" vertex="1" parent="1">
          <mxGeometry x="170" y="320" width="30" height="60" as="geometry" />
        </mxCell>
        <mxCell id="jY5iZFQW-tw8f92g8F53-54" style="edgeStyle=orthogonalEdgeStyle;rounded=0;orthogonalLoop=1;jettySize=auto;html=1;fillColor=#d80073;strokeColor=#A50040;" edge="1" parent="1" source="jY5iZFQW-tw8f92g8F53-3" target="jY5iZFQW-tw8f92g8F53-30">
          <mxGeometry relative="1" as="geometry">
            <Array as="points">
              <mxPoint x="790" y="250" />
              <mxPoint x="790" y="660" />
              <mxPoint x="385" y="660" />
            </Array>
          </mxGeometry>
        </mxCell>
        <mxCell id="jY5iZFQW-tw8f92g8F53-3" value="Rescatista" style="shape=umlActor;verticalLabelPosition=bottom;verticalAlign=top;html=1;fillColor=#d80073;fontColor=#ffffff;strokeColor=#A50040;" vertex="1" parent="1">
          <mxGeometry x="730" y="220" width="30" height="60" as="geometry" />
        </mxCell>
        <mxCell id="jY5iZFQW-tw8f92g8F53-50" style="edgeStyle=orthogonalEdgeStyle;rounded=0;orthogonalLoop=1;jettySize=auto;html=1;entryX=1;entryY=0.5;entryDx=0;entryDy=0;fillColor=#0050ef;strokeColor=#001DBC;" edge="1" parent="1" source="jY5iZFQW-tw8f92g8F53-4" target="jY5iZFQW-tw8f92g8F53-28">
          <mxGeometry relative="1" as="geometry">
            <Array as="points">
              <mxPoint x="700" y="400" />
              <mxPoint x="700" y="560" />
            </Array>
          </mxGeometry>
        </mxCell>
        <mxCell id="jY5iZFQW-tw8f92g8F53-51" style="edgeStyle=orthogonalEdgeStyle;rounded=0;orthogonalLoop=1;jettySize=auto;html=1;fillColor=#0050ef;strokeColor=#001DBC;entryX=0.5;entryY=1;entryDx=0;entryDy=0;" edge="1" parent="1" source="jY5iZFQW-tw8f92g8F53-4" target="jY5iZFQW-tw8f92g8F53-19">
          <mxGeometry relative="1" as="geometry">
            <mxPoint x="440" y="255" as="targetPoint" />
            <Array as="points">
              <mxPoint x="745" y="360" />
              <mxPoint x="490" y="360" />
              <mxPoint x="490" y="290" />
              <mxPoint x="385" y="290" />
            </Array>
          </mxGeometry>
        </mxCell>
        <mxCell id="jY5iZFQW-tw8f92g8F53-52" style="edgeStyle=orthogonalEdgeStyle;rounded=0;orthogonalLoop=1;jettySize=auto;html=1;entryX=1;entryY=0.5;entryDx=0;entryDy=0;fillColor=#0050ef;strokeColor=#001DBC;" edge="1" parent="1" source="jY5iZFQW-tw8f92g8F53-4" target="jY5iZFQW-tw8f92g8F53-21">
          <mxGeometry relative="1" as="geometry">
            <Array as="points">
              <mxPoint x="470" y="370" />
              <mxPoint x="470" y="400" />
            </Array>
          </mxGeometry>
        </mxCell>
        <mxCell id="jY5iZFQW-tw8f92g8F53-53" style="edgeStyle=orthogonalEdgeStyle;rounded=0;orthogonalLoop=1;jettySize=auto;html=1;entryX=0.5;entryY=1;entryDx=0;entryDy=0;fillColor=#0050ef;strokeColor=#001DBC;" edge="1" parent="1" source="jY5iZFQW-tw8f92g8F53-4" target="jY5iZFQW-tw8f92g8F53-22">
          <mxGeometry relative="1" as="geometry">
            <Array as="points">
              <mxPoint x="700" y="400" />
              <mxPoint x="700" y="520" />
              <mxPoint x="385" y="520" />
            </Array>
          </mxGeometry>
        </mxCell>
        <mxCell id="jY5iZFQW-tw8f92g8F53-4" value="Adoptante" style="shape=umlActor;verticalLabelPosition=bottom;verticalAlign=top;html=1;fillColor=#1ba1e2;fontColor=#ffffff;strokeColor=#006EAF;" vertex="1" parent="1">
          <mxGeometry x="730" y="370" width="30" height="60" as="geometry" />
        </mxCell>
        <mxCell id="jY5iZFQW-tw8f92g8F53-57" style="edgeStyle=orthogonalEdgeStyle;rounded=0;orthogonalLoop=1;jettySize=auto;html=1;entryX=0;entryY=0.5;entryDx=0;entryDy=0;fillColor=#fa6800;strokeColor=#C73500;" edge="1" parent="1" source="jY5iZFQW-tw8f92g8F53-5" target="jY5iZFQW-tw8f92g8F53-30">
          <mxGeometry relative="1" as="geometry" />
        </mxCell>
        <mxCell id="jY5iZFQW-tw8f92g8F53-58" style="edgeStyle=orthogonalEdgeStyle;rounded=0;orthogonalLoop=1;jettySize=auto;html=1;entryX=0;entryY=0.5;entryDx=0;entryDy=0;fillColor=#fa6800;strokeColor=#C73500;" edge="1" parent="1" source="jY5iZFQW-tw8f92g8F53-5" target="jY5iZFQW-tw8f92g8F53-19">
          <mxGeometry relative="1" as="geometry" />
        </mxCell>
        <mxCell id="jY5iZFQW-tw8f92g8F53-59" style="edgeStyle=orthogonalEdgeStyle;rounded=0;orthogonalLoop=1;jettySize=auto;html=1;entryX=0;entryY=0.5;entryDx=0;entryDy=0;fillColor=#fa6800;strokeColor=#C73500;" edge="1" parent="1" source="jY5iZFQW-tw8f92g8F53-5" target="jY5iZFQW-tw8f92g8F53-14">
          <mxGeometry relative="1" as="geometry" />
        </mxCell>
        <mxCell id="jY5iZFQW-tw8f92g8F53-5" value="Voluntario" style="shape=umlActor;verticalLabelPosition=bottom;verticalAlign=top;html=1;fillColor=#fa6800;fontColor=#000000;strokeColor=#C73500;" vertex="1" parent="1">
          <mxGeometry x="170" y="490" width="30" height="60" as="geometry" />
        </mxCell>
        <mxCell id="jY5iZFQW-tw8f92g8F53-10" style="edgeStyle=orthogonalEdgeStyle;rounded=0;orthogonalLoop=1;jettySize=auto;html=1;entryX=0;entryY=0.5;entryDx=0;entryDy=0;exitX=0.5;exitY=0;exitDx=0;exitDy=0;endArrow=none;endFill=0;dashed=1;dashPattern=8 8;fillColor=#dae8fc;strokeColor=#6c8ebf;" edge="1" parent="1" source="jY5iZFQW-tw8f92g8F53-6" target="jY5iZFQW-tw8f92g8F53-9">
          <mxGeometry relative="1" as="geometry" />
        </mxCell>
        <mxCell id="jY5iZFQW-tw8f92g8F53-18" style="edgeStyle=orthogonalEdgeStyle;rounded=0;orthogonalLoop=1;jettySize=auto;html=1;entryX=0;entryY=0.5;entryDx=0;entryDy=0;dashed=1;dashPattern=8 8;fillColor=#dae8fc;strokeColor=#6c8ebf;endArrow=none;endFill=0;" edge="1" parent="1" source="jY5iZFQW-tw8f92g8F53-6" target="jY5iZFQW-tw8f92g8F53-17">
          <mxGeometry relative="1" as="geometry" />
        </mxCell>
        <mxCell id="jY5iZFQW-tw8f92g8F53-6" value="Usuarios" style="ellipse;whiteSpace=wrap;html=1;fillColor=#dae8fc;strokeColor=#6c8ebf;" vertex="1" parent="1">
          <mxGeometry x="330" y="100" width="110" height="50" as="geometry" />
        </mxCell>
        <mxCell id="jY5iZFQW-tw8f92g8F53-16" style="edgeStyle=orthogonalEdgeStyle;rounded=0;orthogonalLoop=1;jettySize=auto;html=1;fillColor=#dae8fc;strokeColor=#6c8ebf;exitX=1;exitY=0.3333333333333333;exitDx=0;exitDy=0;exitPerimeter=0;" edge="1" parent="1" source="jY5iZFQW-tw8f92g8F53-7" target="jY5iZFQW-tw8f92g8F53-14">
          <mxGeometry relative="1" as="geometry">
            <mxPoint x="200" y="190" as="sourcePoint" />
            <Array as="points">
              <mxPoint x="200" y="195" />
            </Array>
          </mxGeometry>
        </mxCell>
        <mxCell id="jY5iZFQW-tw8f92g8F53-23" style="edgeStyle=orthogonalEdgeStyle;rounded=0;orthogonalLoop=1;jettySize=auto;html=1;entryX=0;entryY=0.5;entryDx=0;entryDy=0;fillColor=#dae8fc;strokeColor=#6c8ebf;exitX=1;exitY=0.3333333333333333;exitDx=0;exitDy=0;exitPerimeter=0;" edge="1" parent="1" source="jY5iZFQW-tw8f92g8F53-7" target="jY5iZFQW-tw8f92g8F53-19">
          <mxGeometry relative="1" as="geometry">
            <Array as="points">
              <mxPoint x="200" y="200" />
              <mxPoint x="265" y="200" />
              <mxPoint x="265" y="255" />
            </Array>
          </mxGeometry>
        </mxCell>
        <mxCell id="jY5iZFQW-tw8f92g8F53-24" style="edgeStyle=orthogonalEdgeStyle;rounded=0;orthogonalLoop=1;jettySize=auto;html=1;exitX=1;exitY=0.3333333333333333;exitDx=0;exitDy=0;exitPerimeter=0;entryX=0;entryY=0.5;entryDx=0;entryDy=0;fillColor=#dae8fc;strokeColor=#6c8ebf;" edge="1" parent="1" source="jY5iZFQW-tw8f92g8F53-7" target="jY5iZFQW-tw8f92g8F53-20">
          <mxGeometry relative="1" as="geometry">
            <Array as="points">
              <mxPoint x="200" y="200" />
              <mxPoint x="265" y="200" />
              <mxPoint x="265" y="325" />
            </Array>
          </mxGeometry>
        </mxCell>
        <mxCell id="jY5iZFQW-tw8f92g8F53-25" style="edgeStyle=orthogonalEdgeStyle;rounded=0;orthogonalLoop=1;jettySize=auto;html=1;entryX=0;entryY=0.5;entryDx=0;entryDy=0;fillColor=#dae8fc;strokeColor=#6c8ebf;" edge="1" parent="1" source="jY5iZFQW-tw8f92g8F53-7" target="jY5iZFQW-tw8f92g8F53-6">
          <mxGeometry relative="1" as="geometry">
            <Array as="points">
              <mxPoint x="265" y="200" />
              <mxPoint x="265" y="125" />
            </Array>
          </mxGeometry>
        </mxCell>
        <mxCell id="jY5iZFQW-tw8f92g8F53-26" style="edgeStyle=orthogonalEdgeStyle;rounded=0;orthogonalLoop=1;jettySize=auto;html=1;exitX=1;exitY=0.3333333333333333;exitDx=0;exitDy=0;exitPerimeter=0;entryX=0;entryY=0.5;entryDx=0;entryDy=0;fillColor=#dae8fc;strokeColor=#6c8ebf;" edge="1" parent="1" source="jY5iZFQW-tw8f92g8F53-7" target="jY5iZFQW-tw8f92g8F53-21">
          <mxGeometry relative="1" as="geometry" />
        </mxCell>
        <mxCell id="jY5iZFQW-tw8f92g8F53-27" style="edgeStyle=orthogonalEdgeStyle;rounded=0;orthogonalLoop=1;jettySize=auto;html=1;entryX=0;entryY=0.5;entryDx=0;entryDy=0;fillColor=#dae8fc;strokeColor=#6c8ebf;" edge="1" parent="1" source="jY5iZFQW-tw8f92g8F53-7" target="jY5iZFQW-tw8f92g8F53-22">
          <mxGeometry relative="1" as="geometry" />
        </mxCell>
        <mxCell id="jY5iZFQW-tw8f92g8F53-29" style="edgeStyle=orthogonalEdgeStyle;rounded=0;orthogonalLoop=1;jettySize=auto;html=1;entryX=0;entryY=0.5;entryDx=0;entryDy=0;fillColor=#dae8fc;strokeColor=#6c8ebf;" edge="1" parent="1" source="jY5iZFQW-tw8f92g8F53-7" target="jY5iZFQW-tw8f92g8F53-28">
          <mxGeometry relative="1" as="geometry" />
        </mxCell>
        <mxCell id="jY5iZFQW-tw8f92g8F53-49" style="edgeStyle=orthogonalEdgeStyle;rounded=0;orthogonalLoop=1;jettySize=auto;html=1;entryX=0;entryY=0.5;entryDx=0;entryDy=0;fillColor=#d5e8d4;strokeColor=#82b366;" edge="1" parent="1" source="jY5iZFQW-tw8f92g8F53-7" target="jY5iZFQW-tw8f92g8F53-48">
          <mxGeometry relative="1" as="geometry" />
        </mxCell>
        <mxCell id="jY5iZFQW-tw8f92g8F53-7" value="Administrador" style="shape=umlActor;verticalLabelPosition=bottom;verticalAlign=top;html=1;fillColor=#dae8fc;strokeColor=#6c8ebf;" vertex="1" parent="1">
          <mxGeometry x="170" y="150" width="30" height="60" as="geometry" />
        </mxCell>
        <mxCell id="jY5iZFQW-tw8f92g8F53-9" value="Alta de usuario" style="ellipse;whiteSpace=wrap;html=1;fillColor=#dae8fc;strokeColor=#6c8ebf;" vertex="1" parent="1">
          <mxGeometry x="550" y="40" width="110" height="50" as="geometry" />
        </mxCell>
        <mxCell id="jY5iZFQW-tw8f92g8F53-12" value="Eliminar usuario" style="ellipse;whiteSpace=wrap;html=1;fillColor=#dae8fc;strokeColor=#6c8ebf;" vertex="1" parent="1">
          <mxGeometry x="550" y="100" width="110" height="50" as="geometry" />
        </mxCell>
        <mxCell id="jY5iZFQW-tw8f92g8F53-13" style="edgeStyle=orthogonalEdgeStyle;rounded=0;orthogonalLoop=1;jettySize=auto;html=1;entryX=-0.012;entryY=0.38;entryDx=0;entryDy=0;entryPerimeter=0;exitX=0.5;exitY=0;exitDx=0;exitDy=0;dashed=1;endArrow=none;endFill=0;fillColor=#dae8fc;strokeColor=#6c8ebf;dashPattern=8 8;" edge="1" parent="1" source="jY5iZFQW-tw8f92g8F53-6" target="jY5iZFQW-tw8f92g8F53-12">
          <mxGeometry relative="1" as="geometry" />
        </mxCell>
        <mxCell id="jY5iZFQW-tw8f92g8F53-15" style="edgeStyle=orthogonalEdgeStyle;rounded=0;orthogonalLoop=1;jettySize=auto;html=1;exitX=0.5;exitY=0;exitDx=0;exitDy=0;entryX=0.5;entryY=1;entryDx=0;entryDy=0;dashed=1;dashPattern=8 8;endArrow=none;endFill=0;fillColor=#dae8fc;strokeColor=#6c8ebf;" edge="1" parent="1" source="jY5iZFQW-tw8f92g8F53-14" target="jY5iZFQW-tw8f92g8F53-6">
          <mxGeometry relative="1" as="geometry" />
        </mxCell>
        <mxCell id="jY5iZFQW-tw8f92g8F53-14" value="Registro" style="ellipse;whiteSpace=wrap;html=1;" vertex="1" parent="1">
          <mxGeometry x="330" y="170" width="110" height="50" as="geometry" />
        </mxCell>
        <mxCell id="jY5iZFQW-tw8f92g8F53-17" value="Modificar usuario" style="ellipse;whiteSpace=wrap;html=1;fillColor=#dae8fc;strokeColor=#6c8ebf;" vertex="1" parent="1">
          <mxGeometry x="560" y="160" width="110" height="50" as="geometry" />
        </mxCell>
        <mxCell id="jY5iZFQW-tw8f92g8F53-19" value="Login" style="ellipse;whiteSpace=wrap;html=1;" vertex="1" parent="1">
          <mxGeometry x="330" y="230" width="110" height="50" as="geometry" />
        </mxCell>
        <mxCell id="jY5iZFQW-tw8f92g8F53-36" style="edgeStyle=orthogonalEdgeStyle;rounded=0;orthogonalLoop=1;jettySize=auto;html=1;entryX=0;entryY=0.5;entryDx=0;entryDy=0;endArrow=none;endFill=0;dashed=1;dashPattern=8 8;fillColor=#e1d5e7;strokeColor=#9673a6;" edge="1" parent="1" source="jY5iZFQW-tw8f92g8F53-20" target="jY5iZFQW-tw8f92g8F53-35">
          <mxGeometry relative="1" as="geometry" />
        </mxCell>
        <mxCell id="jY5iZFQW-tw8f92g8F53-38" style="edgeStyle=orthogonalEdgeStyle;rounded=0;orthogonalLoop=1;jettySize=auto;html=1;entryX=0;entryY=0.5;entryDx=0;entryDy=0;endArrow=none;endFill=0;dashed=1;dashPattern=8 8;fillColor=#e1d5e7;strokeColor=#9673a6;" edge="1" parent="1" source="jY5iZFQW-tw8f92g8F53-20" target="jY5iZFQW-tw8f92g8F53-37">
          <mxGeometry relative="1" as="geometry" />
        </mxCell>
        <mxCell id="jY5iZFQW-tw8f92g8F53-20" value="Adopcion" style="ellipse;whiteSpace=wrap;html=1;fillColor=#e1d5e7;strokeColor=#9673a6;" vertex="1" parent="1">
          <mxGeometry x="330" y="300" width="110" height="50" as="geometry" />
        </mxCell>
        <mxCell id="jY5iZFQW-tw8f92g8F53-46" style="edgeStyle=orthogonalEdgeStyle;rounded=0;orthogonalLoop=1;jettySize=auto;html=1;entryX=0.5;entryY=1;entryDx=0;entryDy=0;endArrow=none;endFill=0;fillColor=#e1d5e7;strokeColor=#9673a6;dashed=1;dashPattern=8 8;" edge="1" parent="1" source="jY5iZFQW-tw8f92g8F53-21" target="jY5iZFQW-tw8f92g8F53-20">
          <mxGeometry relative="1" as="geometry" />
        </mxCell>
        <mxCell id="jY5iZFQW-tw8f92g8F53-47" style="edgeStyle=orthogonalEdgeStyle;rounded=0;orthogonalLoop=1;jettySize=auto;html=1;exitX=0.5;exitY=1;exitDx=0;exitDy=0;entryX=0.5;entryY=0;entryDx=0;entryDy=0;endArrow=none;endFill=0;dashed=1;dashPattern=8 8;fillColor=#e1d5e7;strokeColor=#9673a6;" edge="1" parent="1" source="jY5iZFQW-tw8f92g8F53-21" target="jY5iZFQW-tw8f92g8F53-22">
          <mxGeometry relative="1" as="geometry" />
        </mxCell>
        <mxCell id="jY5iZFQW-tw8f92g8F53-21" value="Seguimiento" style="ellipse;whiteSpace=wrap;html=1;fillColor=#e1d5e7;strokeColor=#9673a6;" vertex="1" parent="1">
          <mxGeometry x="330" y="375" width="110" height="50" as="geometry" />
        </mxCell>
        <mxCell id="jY5iZFQW-tw8f92g8F53-41" style="edgeStyle=orthogonalEdgeStyle;rounded=0;orthogonalLoop=1;jettySize=auto;html=1;entryX=0;entryY=0.5;entryDx=0;entryDy=0;fillColor=#ffe6cc;strokeColor=#d79b00;dashed=1;dashPattern=8 8;endArrow=none;endFill=0;" edge="1" parent="1" source="jY5iZFQW-tw8f92g8F53-22" target="jY5iZFQW-tw8f92g8F53-39">
          <mxGeometry relative="1" as="geometry" />
        </mxCell>
        <mxCell id="jY5iZFQW-tw8f92g8F53-42" style="edgeStyle=orthogonalEdgeStyle;rounded=0;orthogonalLoop=1;jettySize=auto;html=1;entryX=0;entryY=0.5;entryDx=0;entryDy=0;endArrow=none;endFill=0;dashed=1;dashPattern=8 8;fillColor=#ffe6cc;strokeColor=#d79b00;" edge="1" parent="1" source="jY5iZFQW-tw8f92g8F53-22" target="jY5iZFQW-tw8f92g8F53-40">
          <mxGeometry relative="1" as="geometry" />
        </mxCell>
        <mxCell id="jY5iZFQW-tw8f92g8F53-22" value="Cita" style="ellipse;whiteSpace=wrap;html=1;fillColor=#ffe6cc;strokeColor=#d79b00;" vertex="1" parent="1">
          <mxGeometry x="330" y="450" width="110" height="50" as="geometry" />
        </mxCell>
        <mxCell id="jY5iZFQW-tw8f92g8F53-28" value="Busqueda Mascota" style="ellipse;whiteSpace=wrap;html=1;" vertex="1" parent="1">
          <mxGeometry x="330" y="535" width="110" height="50" as="geometry" />
        </mxCell>
        <mxCell id="jY5iZFQW-tw8f92g8F53-32" style="edgeStyle=orthogonalEdgeStyle;rounded=0;orthogonalLoop=1;jettySize=auto;html=1;entryX=0;entryY=0.5;entryDx=0;entryDy=0;endArrow=none;endFill=0;fillColor=#f8cecc;strokeColor=#b85450;dashed=1;dashPattern=8 8;" edge="1" parent="1" source="jY5iZFQW-tw8f92g8F53-30" target="jY5iZFQW-tw8f92g8F53-31">
          <mxGeometry relative="1" as="geometry" />
        </mxCell>
        <mxCell id="jY5iZFQW-tw8f92g8F53-30" value="Rescate Mascota" style="ellipse;whiteSpace=wrap;html=1;fillColor=#f8cecc;strokeColor=#b85450;" vertex="1" parent="1">
          <mxGeometry x="330" y="600" width="110" height="50" as="geometry" />
        </mxCell>
        <mxCell id="jY5iZFQW-tw8f92g8F53-56" style="edgeStyle=orthogonalEdgeStyle;rounded=0;orthogonalLoop=1;jettySize=auto;html=1;entryX=0;entryY=0.5;entryDx=0;entryDy=0;fillColor=#f8cecc;strokeColor=#b85450;dashed=1;dashPattern=8 8;endArrow=none;endFill=0;" edge="1" parent="1" source="jY5iZFQW-tw8f92g8F53-31" target="jY5iZFQW-tw8f92g8F53-55">
          <mxGeometry relative="1" as="geometry" />
        </mxCell>
        <mxCell id="jY5iZFQW-tw8f92g8F53-31" value="Registro Mascota" style="ellipse;whiteSpace=wrap;html=1;fillColor=#f8cecc;strokeColor=#b85450;" vertex="1" parent="1">
          <mxGeometry x="500" y="570" width="110" height="50" as="geometry" />
        </mxCell>
        <mxCell id="jY5iZFQW-tw8f92g8F53-35" value="Nueva Adopción" style="ellipse;whiteSpace=wrap;html=1;fillColor=#e1d5e7;strokeColor=#9673a6;" vertex="1" parent="1">
          <mxGeometry x="500" y="230" width="110" height="50" as="geometry" />
        </mxCell>
        <mxCell id="jY5iZFQW-tw8f92g8F53-37" value="Modificar Adopción" style="ellipse;whiteSpace=wrap;html=1;fillColor=#e1d5e7;strokeColor=#9673a6;" vertex="1" parent="1">
          <mxGeometry x="500" y="290" width="110" height="50" as="geometry" />
        </mxCell>
        <mxCell id="jY5iZFQW-tw8f92g8F53-39" value="Visita" style="ellipse;whiteSpace=wrap;html=1;fillColor=#ffe6cc;strokeColor=#d79b00;" vertex="1" parent="1">
          <mxGeometry x="530" y="380" width="110" height="50" as="geometry" />
        </mxCell>
        <mxCell id="jY5iZFQW-tw8f92g8F53-40" value="Consulta" style="ellipse;whiteSpace=wrap;html=1;fillColor=#ffe6cc;strokeColor=#d79b00;" vertex="1" parent="1">
          <mxGeometry x="530" y="440" width="110" height="50" as="geometry" />
        </mxCell>
        <mxCell id="jY5iZFQW-tw8f92g8F53-48" value="Informes" style="ellipse;whiteSpace=wrap;html=1;fillColor=#d5e8d4;strokeColor=#82b366;" vertex="1" parent="1">
          <mxGeometry x="330" y="670" width="110" height="50" as="geometry" />
        </mxCell>
        <mxCell id="jY5iZFQW-tw8f92g8F53-55" value="Modificar Registro Mascota" style="ellipse;whiteSpace=wrap;html=1;fillColor=#f8cecc;strokeColor=#b85450;" vertex="1" parent="1">
          <mxGeometry x="640" y="570" width="110" height="50" as="geometry" />
        </mxCell>
      </root>
    </mxGraphModel>
  </diagram>
</mxfile>
